<?xml version="1.0" standalone="no"?>
<!DOCTYPE svg PUBLIC "-//W3C//DTD SVG 20010904//EN"
 "http://www.w3.org/TR/2001/REC-SVG-20010904/DTD/svg10.dtd">
<svg version="1.0" xmlns="http://www.w3.org/2000/svg"
 width="737.000000pt" height="737.000000pt" viewBox="0 0 737.000000 737.000000"
 preserveAspectRatio="xMidYMid meet">
<metadata>
Created by potrace 1.11, written by Peter Selinger 2001-2013
</metadata>
<g transform="translate(0.000000,737.000000) scale(0.100000,-0.100000)"
fill="#000000" stroke="none">
<path d="M3459 7356 c-2 -2 -47 -7 -99 -10 -52 -4 -102 -9 -110 -11 -8 -2 -37
-6 -65 -10 -93 -11 -172 -25 -335 -60 -242 -52 -549 -164 -810 -294 -184 -92
-453 -255 -503 -306 -9 -8 -18 -15 -22 -15 -3 0 -11 -4 -18 -10 -7 -5 -52 -42
-102 -82 -177 -142 -345 -302 -471 -448 -22 -25 -49 -56 -61 -70 -83 -95 -284
-380 -348 -495 -79 -141 -156 -293 -199 -395 -27 -63 -55 -130 -63 -149 -28
-63 -123 -367 -138 -439 -53 -256 -63 -312 -71 -387 -4 -33 -8 -62 -10 -65 -1
-3 -6 -53 -11 -110 -15 -195 -8 -620 12 -740 2 -14 7 -52 10 -85 4 -32 8 -62
10 -65 2 -3 6 -24 9 -46 2 -21 7 -50 10 -64 3 -14 8 -36 10 -50 18 -114 105
-411 170 -585 37 -97 138 -319 148 -323 4 -2 8 -9 8 -17 0 -16 76 -153 151
-274 33 -51 59 -95 59 -97 0 -3 5 -10 11 -17 6 -7 37 -50 70 -97 34 -47 70
-96 82 -110 12 -14 38 -46 57 -70 87 -113 328 -364 414 -431 16 -13 41 -34 55
-47 14 -14 42 -36 61 -51 19 -14 37 -28 40 -31 19 -21 99 -80 108 -80 6 0 12
-4 14 -8 12 -30 319 -219 502 -309 72 -35 139 -69 148 -74 45 -24 276 -111
393 -148 274 -86 521 -134 810 -158 116 -10 474 -10 590 0 119 10 142 12 275
32 8 2 38 6 65 10 28 4 53 9 56 11 4 2 24 6 45 10 22 3 75 15 119 26 44 11 87
22 95 24 8 2 40 10 70 19 30 9 62 18 70 20 46 11 281 100 380 143 179 79 433
216 516 279 17 12 34 23 38 23 6 0 196 138 206 149 3 4 16 14 30 22 14 9 43
31 64 50 22 19 62 54 90 78 138 118 417 409 450 470 5 9 12 18 16 21 13 10
147 196 194 270 27 41 57 87 67 102 10 15 19 30 19 33 0 3 11 23 25 45 37 59
147 282 198 400 63 150 157 430 182 550 2 8 9 38 15 65 31 134 64 348 77 500
15 175 9 570 -12 733 -11 84 -26 191 -31 213 -2 13 -7 41 -10 62 -5 29 -61
260 -88 357 -25 92 -100 296 -142 388 -13 29 -24 55 -24 58 0 8 -126 259 -157
312 -429 739 -1064 1293 -1838 1602 -80 32 -262 96 -300 105 -11 3 -69 18
-130 35 -124 34 -120 33 -270 60 -125 22 -165 28 -232 35 -27 3 -68 8 -93 11
-49 6 -546 15 -551 10z"/>
</g>
</svg>
