<?xml version="1.0" standalone="no"?>
<!DOCTYPE svg PUBLIC "-//W3C//DTD SVG 20010904//EN"
 "http://www.w3.org/TR/2001/REC-SVG-20010904/DTD/svg10.dtd">
<svg version="1.0" xmlns="http://www.w3.org/2000/svg"
 width="737.000000pt" height="737.000000pt" viewBox="0 0 737.000000 737.000000"
 preserveAspectRatio="xMidYMid meet">
<metadata>
Created by potrace 1.11, written by Peter Selinger 2001-2013
</metadata>
<g transform="translate(0.000000,737.000000) scale(0.100000,-0.100000)"
fill="#000000" stroke="none">
<path d="M3468 7355 c-1 -2 -39 -6 -83 -9 -173 -12 -417 -51 -560 -88 -44 -11
-84 -21 -90 -22 -75 -17 -261 -79 -407 -136 -200 -77 -521 -246 -683 -359
-254 -177 -340 -248 -545 -451 -148 -146 -260 -273 -362 -410 -74 -100 -198
-287 -198 -299 0 -5 -3 -11 -7 -13 -9 -3 -50 -76 -91 -158 -15 -30 -29 -57
-32 -60 -3 -3 -23 -43 -44 -90 -22 -47 -50 -107 -63 -134 -12 -28 -23 -55 -23
-60 0 -6 -7 -23 -14 -38 -51 -97 -157 -470 -195 -683 -6 -33 -13 -71 -16 -84
-2 -13 -7 -49 -11 -80 -3 -31 -8 -65 -10 -76 -25 -135 -25 -691 1 -845 2 -14
7 -52 10 -85 4 -32 8 -62 10 -65 2 -3 6 -24 9 -46 2 -21 7 -50 10 -64 3 -14 8
-36 10 -50 12 -75 74 -304 118 -434 88 -262 201 -507 341 -736 65 -105 131
-205 139 -208 5 -2 8 -10 8 -17 0 -7 3 -15 8 -17 4 -2 27 -30 51 -63 140 -189
351 -414 546 -580 32 -27 63 -54 69 -60 6 -5 42 -32 79 -60 37 -27 76 -57 86
-65 11 -8 29 -22 41 -30 13 -8 35 -25 50 -37 15 -13 31 -23 34 -23 3 0 37 -20
74 -44 37 -24 87 -56 112 -70 44 -25 375 -190 415 -207 76 -31 203 -80 220
-84 11 -2 47 -14 80 -26 33 -11 67 -22 75 -24 8 -2 56 -15 105 -29 89 -26 243
-60 320 -71 22 -4 47 -8 55 -10 8 -2 42 -7 75 -10 33 -3 71 -8 85 -10 168 -29
655 -26 883 5 517 71 928 212 1397 478 143 82 458 311 580 422 149 137 328
324 395 415 17 22 35 45 41 50 7 6 39 48 73 95 34 47 65 90 69 95 75 95 246
399 327 580 38 86 42 94 65 155 12 30 26 64 31 75 51 119 148 479 173 645 3
19 7 44 10 55 2 11 7 45 10 76 4 31 9 67 11 80 12 61 19 233 19 429 0 266 -12
416 -46 605 -6 33 -12 69 -13 80 -12 85 -76 327 -125 475 -68 205 -182 461
-292 654 -60 107 -206 330 -219 334 -5 2 -9 8 -9 14 0 6 -12 25 -27 43 -29 33
-35 41 -92 114 -65 82 -211 242 -285 310 -21 20 -53 50 -70 66 -96 94 -325
276 -415 330 -9 6 -18 12 -21 15 -10 10 -167 109 -235 147 -140 80 -415 213
-439 213 -6 0 -22 6 -36 13 -52 27 -369 131 -437 143 -13 3 -62 14 -110 25
-111 26 -254 50 -379 64 -27 3 -69 8 -94 11 -48 6 -536 15 -542 9z"/>
</g>
</svg>
